<?xml version="1.0" encoding="utf-8"?>
<!-- Generator: Adobe Illustrator 20.1.0, SVG Export Plug-In . SVG Version: 6.00 Build 0)  -->
<svg version="1.1" id="Layer_1" xmlns="http://www.w3.org/2000/svg" xmlns:xlink="http://www.w3.org/1999/xlink" x="0px" y="0px"
	 viewBox="0 0 40 40" style="enable-background:new 0 0 40 40;" xml:space="preserve">
<style type="text/css">
	.st0{fill:#00bccc;}
</style>
<path class="st0" d="M22.8,13.2c0,0,5.9-6.3,7.6-4.6c1.7,1.7-4.6,7.8-4.6,7.8L27,30.6l-1.7,2.3L22.1,20l-7.5,6.3l-0.3,4.8L13.5,32
	l-2.4-3.9l-4-2.5L8,24.9l5-0.1l6.1-7.8L6.6,13.3l1.9-1.2L22.8,13.2z M39.9,20C39.9,9,31,0.1,20,0.1S0.1,9,0.1,20
	C0.1,31,9,39.9,20,39.9S39.9,31,39.9,20z M36.4,20c0,9.1-7.4,16.4-16.4,16.4S3.6,29.1,3.6,20S10.9,3.6,20,3.6S36.4,10.9,36.4,20z"/>
</svg>
