<?xml version="1.0" encoding="utf-8"?>
<!-- Generator: Adobe Illustrator 20.1.0, SVG Export Plug-In . SVG Version: 6.00 Build 0)  -->
<svg version="1.1" id="Layer_1" xmlns="http://www.w3.org/2000/svg" xmlns:xlink="http://www.w3.org/1999/xlink" x="0px" y="0px"
	 viewBox="0 0 40 40" style="enable-background:new 0 0 40 40;" xml:space="preserve">
<style type="text/css">
	.st0{fill:#00bccc;}
</style>
<path class="st0" d="M33.1,17.1V29H31v-6.1H9V29H6.9V11H9v6.1H31l0,0H33.1z M11.5,15.9h4.8c0.9,0,1.6-0.7,1.6-1.6
	c0-0.9-0.7-1.6-1.6-1.6h-4.8c-0.9,0-1.6,0.7-1.6,1.6C9.9,15.2,10.6,15.9,11.5,15.9z M39.9,20C39.9,9,31,0.1,20,0.1S0.1,9,0.1,20
	C0.1,31,9,39.9,20,39.9S39.9,31,39.9,20z M36.4,20c0,9.1-7.4,16.4-16.4,16.4S3.6,29.1,3.6,20S10.9,3.6,20,3.6S36.4,10.9,36.4,20z"/>
</svg>
