<?xml version="1.0" encoding="utf-8"?>
<!-- Generator: Adobe Illustrator 20.1.0, SVG Export Plug-In . SVG Version: 6.00 Build 0)  -->
<svg version="1.1" id="Layer_1" xmlns="http://www.w3.org/2000/svg" xmlns:xlink="http://www.w3.org/1999/xlink" x="0px" y="0px"
	 viewBox="0 0 40 40" style="enable-background:new 0 0 40 40;" xml:space="preserve">
<style type="text/css">
	.st0{fill:#00bccc;}
</style>
<path class="st0" d="M20,23.7c-2,0-3.7-1.7-3.7-3.7s1.7-3.7,3.7-3.7s3.7,1.7,3.7,3.7S22,23.7,20,23.7z M29,12.9h-3.7
	c0-0.1,0-0.2,0-0.2c0-1.2-1-2.1-2.1-2.1h-6.3c-1.2,0-2.1,1-2.1,2.1c0,0.1,0,0.2,0,0.2H11c-1.3,0-2.4,1.1-2.4,2.4v10.6
	c0,1.3,1.1,2.4,2.4,2.4H29c1.3,0,2.4-1.1,2.4-2.4V15.3C31.4,14,30.3,12.9,29,12.9z M20,25.3c-2.9,0-5.2-2.4-5.2-5.2s2.4-5.2,5.2-5.2
	s5.2,2.4,5.2,5.2S22.9,25.3,20,25.3z M29.5,17.2h-2.9v-2h2.9V17.2z M20,39.9C9,39.9,0.1,31,0.1,20C0.1,9,9,0.1,20,0.1
	S39.9,9,39.9,20C39.9,31,31,39.9,20,39.9z M20,3.6C10.9,3.6,3.6,10.9,3.6,20S10.9,36.4,20,36.4S36.4,29.1,36.4,20S29.1,3.6,20,3.6z"
	/>
</svg>
